<?xml version="1.0" encoding="UTF-8"?>
<svg width="120" height="120" viewBox="0 0 120 120" fill="none" xmlns="http://www.w3.org/2000/svg">
  <rect width="120" height="120" fill="#F5F5F5"/>
  <path d="M60 40C48.95 40 40 48.95 40 60C40 71.05 48.95 80 60 80C71.05 80 80 71.05 80 60C80 48.95 71.05 40 60 40ZM60 75C51.7 75 45 68.3 45 60C45 51.7 51.7 45 60 45C68.3 45 75 51.7 75 60C75 68.3 68.3 75 60 75Z" fill="#CCCCCC"/>
  <path d="M60 50C54.48 50 50 54.48 50 60C50 65.52 54.48 70 60 70C65.52 70 70 65.52 70 60C70 54.48 65.52 50 60 50Z" fill="#CCCCCC"/>
</svg> 